<svg xmlns="http://www.w3.org/2000/svg"  viewBox="0 0 48 48" width="48px" height="48px" baseProfile="basic"><path d="M46,30h-1.009L31.864,7.496C31.685,7.189,31.355,7,31,7H17c0,0-0.001,0-0.001,0c-0.089,0-0.177,0.012-0.26,0.035	c-0.012,0.003-0.022,0.01-0.034,0.014c-0.071,0.022-0.141,0.048-0.205,0.085c-0.029,0.017-0.052,0.041-0.08,0.061	c-0.043,0.031-0.088,0.059-0.125,0.096c-0.033,0.033-0.057,0.073-0.085,0.111c-0.024,0.032-0.053,0.06-0.074,0.096l-0.002,0.003	c0,0-0.001,0.001-0.001,0.001c0,0,0,0.001,0,0.001L3.077,30H2v2h0.016c-0.027,0.214,0.007,0.433,0.118,0.626l6.297,10.877	C8.966,44.426,9.961,45,11.028,45h25.823c1.063,0,2.056-0.57,2.591-1.488l6.421-11.008c0.001-0.001,0.001-0.002,0.001-0.003	c0.001-0.001,0.002-0.002,0.002-0.003c0.021-0.036,0.031-0.076,0.047-0.114c0.018-0.043,0.041-0.084,0.052-0.128	c0.01-0.039,0.011-0.08,0.016-0.12C45.989,32.091,46,32.046,46,32v0h0V30z M18.687,31l5.31-9.022L29.259,31H18.687z"/><polygon fill="#fff" points="17,6 31,6 45,30 31,30"/><path fill="#fff" d="M16.937,30L24,18L17,6L3,30.125l6.297,10.877C9.655,41.62,10.314,42,11.028,42h25.823	c0.711,0,1.369-0.378,1.728-0.992L45,30H16.937z"/><path d="M45,31H31c-0.355,0-0.685-0.189-0.864-0.496l-14-24c-0.181-0.31-0.182-0.691-0.003-1.002S16.642,5,17,5h14	c0.355,0,0.685,0.189,0.864,0.496l14,24c0.181,0.31,0.182,0.691,0.003,1.002S45.358,31,45,31z M31.574,29h11.685L30.426,7H18.741	L31.574,29z"/><path d="M36.851,43H11.028c-1.067,0-2.062-0.574-2.597-1.497L2.135,30.626c-0.18-0.31-0.18-0.693,0-1.003l14-24.125	C16.314,5.19,16.643,5,16.999,5c0,0,0,0,0.001,0c0.355,0,0.685,0.189,0.864,0.496l7,12c0.182,0.313,0.182,0.699-0.002,1.011	L18.687,29H45c0.358,0,0.689,0.191,0.867,0.502s0.177,0.693-0.003,1.002l-6.421,11.008C38.907,42.43,37.914,43,36.851,43z M4.156,30.125l6.007,10.375C10.341,40.809,10.672,41,11.028,41h25.823c0.354,0,0.685-0.19,0.864-0.496L43.259,31H16.938	c-0.359,0-0.69-0.192-0.868-0.503c-0.178-0.312-0.176-0.695,0.006-1.004l6.765-11.495L17.002,7.988L4.156,30.125z"/><path d="M10.315,42.25c-0.172,0-0.347-0.044-0.506-0.138c-0.476-0.28-0.635-0.893-0.354-1.369l13.684-23.25	c0.28-0.476,0.892-0.635,1.369-0.354c0.476,0.28,0.635,0.893,0.354,1.369l-13.684,23.25C10.992,42.074,10.658,42.25,10.315,42.25z"/></svg>